REPO MAN

Director: Alex Cox

Release Date: 2 March 1984 (USA), Blu-Ray: Feb 20 2012

Genre: Comedy | Crime | Sci-Fi

Tagline: A repo man life is always intense... but only a fool gets killed for a car.

Plot: Young punk Otto becomes a repo man after helping to steal a car, and stumbles into a world of wackiness as a result.

==========================================================================
General
Complete name                    : Repo Man (1984.MULTi.BRRip.720p.x264-STO).mkv
Format                           : Matroska
File size                        : 4.28 GiB
Duration                         : 1h 32mn
Overall bit rate                 : 6 644 Kbps
Encoded date                     : UTC 2012-09-20 15:38:04
Writing application              : mkvmerge v2.5.3 ('Boogie') built on Mar  7 2009 15:00:41
Writing library                  : libebml v0.7.7 + libmatroska v0.8.1

Video
ID                               : 19
Format                           : AVC
Format/Info                      : Advanced Video Codec
Format profile                   : High@L4.1
Format settings, CABAC           : Yes
Format settings, ReFrames        : 4 frames
Codec ID                         : V_MPEG4/ISO/AVC
Duration                         : 1h 32mn
Bit rate mode                    : Variable
Bit rate                         : 6 000 Kbps
Maximum bit rate                 : 24.0 Mbps
Width                            : 1 280 pixels
Height                           : 720 pixels
Display aspect ratio             : 16:9
Frame rate                       : 23.976 fps
Color space                      : YUV
Chroma subsampling               : 4:2:0
Bit depth                        : 8 bits
Scan type                        : Progressive
Bits/(Pixel*Frame)               : 0.272
Stream size                      : 3.78 GiB (88%)
Writing library                  : x264 core 78 r1309M 4d77de8


Audio #1
ID                               : 14
Format                           : MPEG Audio
Format version                   : Version 1
Format profile                   : Layer 3
Codec ID                         : A_MPEG/L3
Codec ID/Hint                    : MP3
Duration                         : 1h 32mn
Bit rate mode                    : Constant
Bit rate                         : 128 Kbps
Channel(s)                       : 2 channels
Sampling rate                    : 48.0 KHz
Stream size                      : 84.4 MiB (2%)
Title                            : English
Writing library                  : LAME3.98.2
Language                         : English

=========================================================================

~Download, Seed, Enjoy!~

More nifty subculture shares on me lousy blog, give it a look, all you can eat: 
http://deathburger.doodlekit.com